<svg width="1278" height="527" viewBox="0 0 1278 527" fill="none" xmlns="http://www.w3.org/2000/svg">
  <rect width="1278" height="527" fill="#F8F9FB"/>
  <rect width="213" height="527" fill="#1F201D" fill-opacity="0.86"/>
  <rect x="213" y="8" width="1065" height="53" fill="#ED000B"/>
  <text x="241" y="40" fill="white" font-family="Arial, sans-serif" font-size="22" font-weight="700">Dashboard</text>
  <text x="1223" y="40" fill="white" font-family="Arial, sans-serif" font-size="14" font-weight="700">Admin</text>
  <circle cx="1202" cy="35" r="14" fill="#22C55E"/>
  <path d="M95 39L145 84L132 139L95 164L58 139L45 84L95 39Z" fill="#172033" stroke="#F04438" stroke-width="4"/>
  <path d="M95 51C121 78 113 101 95 120C76 101 68 78 95 51Z" fill="#FFB020"/>
  <path d="M62 97H128L119 135H71L62 97Z" fill="#ED000B"/>
  <text x="51" y="123" fill="#FFD166" font-family="Arial Black, Arial, sans-serif" font-size="20" font-weight="900">FIREGUARD</text>
  <rect x="10" y="198" width="192" height="37" rx="4" fill="white" fill-opacity="0.24"/>
  <text x="48" y="220" fill="white" font-family="Arial, sans-serif" font-size="15" font-weight="700">Dashboard</text>
  <text x="48" y="259" fill="white" font-family="Arial, sans-serif" font-size="15" font-weight="700">Logs</text>
  <circle cx="192" cy="252" r="4" fill="#EF4444"/>
  <text x="48" y="294" fill="white" font-family="Arial, sans-serif" font-size="15" font-weight="700">Reports</text>
  <text x="48" y="329" fill="white" font-family="Arial, sans-serif" font-size="15" font-weight="700">Users</text>
  <text x="48" y="365" fill="white" font-family="Arial, sans-serif" font-size="15" font-weight="700">Settings</text>
  <rect x="256" y="76" width="704" height="74" rx="9" fill="white" stroke="#E5E7EB" filter="url(#shadow)"/>
  <circle cx="384" cy="113" r="14" fill="#050505"/>
  <text x="407" y="118" fill="#5B6475" font-family="Arial, sans-serif" font-size="12">TOTAL ROOMS</text>
  <text x="489" y="122" fill="#020617" font-family="Arial, sans-serif" font-size="22" font-weight="700">1</text>
  <circle cx="706" cy="113" r="14" fill="#FF2D3E"/>
  <text x="729" y="118" fill="#5B6475" font-family="Arial, sans-serif" font-size="12">ALERTS WITHIN THE DAY</text>
  <text x="857" y="122" fill="#ED000B" font-family="Arial, sans-serif" font-size="22" font-weight="700">0</text>
  <rect x="975" y="76" width="264" height="74" rx="9" fill="white" stroke="#FFB3B3" filter="url(#shadow)"/>
  <text x="984" y="91" fill="#ED000B" font-family="Arial, sans-serif" font-size="9">EMERGENCY CONTACT</text>
  <text x="984" y="106" fill="#0F172A" font-family="Arial, sans-serif" font-size="11" font-weight="700">Panabo City Fire Station</text>
  <rect x="984" y="113" width="116" height="24" rx="5" fill="#FFF2F2" stroke="#FFB3B3"/>
  <text x="992" y="128" fill="#C40008" font-family="Arial, sans-serif" font-size="10" font-weight="700">(084) 823 - 1773</text>
  <rect x="1105" y="113" width="116" height="24" rx="5" fill="#FFF2F2" stroke="#FFB3B3"/>
  <text x="1113" y="128" fill="#C40008" font-family="Arial, sans-serif" font-size="10" font-weight="700">0928-458-7586</text>
  <rect x="614" y="180" width="266" height="249" rx="11" fill="white" stroke="#E5E7EB" filter="url(#shadow)"/>
  <text x="665" y="222" fill="#15233A" font-family="Arial, sans-serif" font-size="24" font-weight="800">ROOM 1</text>
  <circle cx="847" cy="211" r="11" fill="#22C55E"/>
  <text x="635" y="252" fill="#15233A" font-family="Arial, sans-serif" font-size="14" font-weight="700">Temperature</text>
  <text x="635" y="273" fill="#0F172A" font-family="Arial, sans-serif" font-size="15" font-weight="800">38.4°C</text>
  <text x="758" y="252" fill="#15233A" font-family="Arial, sans-serif" font-size="14" font-weight="700">Carbon monoxide</text>
  <text x="758" y="273" fill="#0F172A" font-family="Arial, sans-serif" font-size="15" font-weight="800">0.58</text>
  <text x="635" y="305" fill="#15233A" font-family="Arial, sans-serif" font-size="14" font-weight="700">Humidity</text>
  <text x="635" y="326" fill="#0F172A" font-family="Arial, sans-serif" font-size="15" font-weight="800">53.8%</text>
  <text x="758" y="305" fill="#15233A" font-family="Arial, sans-serif" font-size="14" font-weight="700">Smoke and Gas</text>
  <text x="758" y="326" fill="#0F172A" font-family="Arial, sans-serif" font-size="15" font-weight="800">0.66</text>
  <line x1="635" y1="347" x2="858" y2="347" stroke="#E5E7EB"/>
  <text x="635" y="379" fill="#15233A" font-family="Arial, sans-serif" font-size="16" font-weight="700">Status</text>
  <text x="817" y="379" fill="#0F172A" font-family="Arial, sans-serif" font-size="16" font-weight="800">Active</text>
  <text x="635" y="402" fill="#9CA3AF" font-family="Arial, sans-serif" font-size="10">Last Update: 2026-03-25 22:31:20</text>
  <rect x="790" y="390" width="64" height="18" rx="4" fill="#FEF3C7"/>
  <text x="798" y="403" fill="#A16207" font-family="Arial, sans-serif" font-size="10">Offline in: 27s</text>
  <defs>
    <filter id="shadow" x="-20%" y="-20%" width="140%" height="140%" color-interpolation-filters="sRGB">
      <feDropShadow dx="0" dy="2" stdDeviation="4" flood-color="#000000" flood-opacity="0.13"/>
    </filter>
  </defs>
</svg>
