<svg width="1920" height="914" viewBox="0 0 1920 914" fill="none" xmlns="http://www.w3.org/2000/svg">
  <rect width="1920" height="914" fill="#F6F7F9"/>
  <rect width="323" height="914" fill="#222" fill-opacity="0.82"/>
  <rect x="323" width="1597" height="80" fill="#ED000B"/>
  <text x="364" y="49" fill="white" font-family="Arial, sans-serif" font-size="30" font-weight="700">Dashboard</text>
  <text x="1830" y="50" fill="white" font-family="Arial, sans-serif" font-size="18" font-weight="700">Admin</text>
  <path d="M149 48L214 110L196 211L149 238L102 211L84 110L149 48Z" fill="#142033" stroke="#F04438" stroke-width="5"/>
  <path d="M149 61C183 97 174 130 149 154C124 130 114 97 149 61Z" fill="#FFB020"/>
  <path d="M106 129H192L181 197H119L106 129Z" fill="#ED000B"/>
  <text x="88" y="166" fill="#FFD166" font-family="Arial Black, Arial, sans-serif" font-size="26" font-weight="900">FIREGUARD</text>
  <rect x="18" y="286" width="290" height="51" rx="7" fill="white" fill-opacity="0.24"/>
  <text x="78" y="319" fill="white" font-family="Arial, sans-serif" font-size="20" font-weight="700">Dashboard</text>
  <text x="78" y="375" fill="white" font-family="Arial, sans-serif" font-size="20" font-weight="700">Logs</text>
  <text x="78" y="429" fill="white" font-family="Arial, sans-serif" font-size="20" font-weight="700">Reports</text>
  <text x="78" y="484" fill="white" font-family="Arial, sans-serif" font-size="20" font-weight="700">Users</text>
  <text x="78" y="539" fill="white" font-family="Arial, sans-serif" font-size="20" font-weight="700">Settings</text>
  <rect x="18" y="810" width="290" height="86" rx="18" fill="white" fill-opacity="0.18" stroke="white" stroke-opacity="0.18"/>
  <rect x="34" y="825" width="55" height="55" rx="14" fill="white" fill-opacity="0.16" stroke="white" stroke-opacity="0.24"/>
  <text x="51" y="860" fill="white" font-family="Arial, sans-serif" font-size="17" font-weight="700">PC</text>
  <text x="104" y="850" fill="white" font-family="Arial, sans-serif" font-size="17" font-weight="700">Paul Carpenter</text>
  <text x="104" y="872" fill="#D1D5DB" font-family="Arial, sans-serif" font-size="14">paulcarpenters@g...</text>
  <rect x="387" y="101" width="1048" height="111" rx="14" fill="white" stroke="#E5E7EB" filter="url(#softShadow)"/>
  <circle cx="580" cy="156" r="20" fill="#050505"/>
  <text x="610" y="163" fill="#5B6475" font-family="Arial, sans-serif" font-size="16">TOTAL ROOMS</text>
  <text x="735" y="167" fill="#020617" font-family="Arial, sans-serif" font-size="27" font-weight="700">1</text>
  <circle cx="1055" cy="156" r="20" fill="#FF2D3E"/>
  <text x="1085" y="163" fill="#5B6475" font-family="Arial, sans-serif" font-size="16">ALERTS WITHIN THE DAY</text>
  <text x="1285" y="167" fill="#ED000B" font-family="Arial, sans-serif" font-size="27" font-weight="700">0</text>
  <rect x="1454" y="102" width="400" height="109" rx="14" fill="white" stroke="#FFB3B3" filter="url(#softShadow)"/>
  <text x="1471" y="124" fill="#ED000B" font-family="Arial, sans-serif" font-size="12">EMERGENCY CONTACT</text>
  <text x="1471" y="146" fill="#0F172A" font-family="Arial, sans-serif" font-size="14" font-weight="700">Panabo City Fire Station</text>
  <rect x="1470" y="156" width="181" height="37" rx="7" fill="#FFF2F2" stroke="#FFB3B3"/>
  <text x="1480" y="171" fill="#C40008" font-family="Arial, sans-serif" font-size="12" font-weight="700">Landline</text>
  <text x="1480" y="187" fill="#C40008" font-family="Arial, sans-serif" font-size="12" font-weight="700">(084) 823 - 1773</text>
  <rect x="1657" y="156" width="181" height="37" rx="7" fill="#FFF2F2" stroke="#FFB3B3"/>
  <text x="1667" y="171" fill="#C40008" font-family="Arial, sans-serif" font-size="12" font-weight="700">SMART</text>
  <text x="1667" y="187" fill="#C40008" font-family="Arial, sans-serif" font-size="12" font-weight="700">0928-458-7586</text>
  <rect x="920" y="261" width="401" height="337" rx="18" fill="#D1D5DB" filter="url(#softShadow)"/>
  <text x="999" y="323" fill="#15233A" font-family="Arial, sans-serif" font-size="30" font-weight="800">ROOM 1</text>
  <text x="951" y="371" fill="#15233A" font-family="Arial, sans-serif" font-size="18" font-weight="700">Temperature</text>
  <text x="951" y="402" fill="#0F172A" font-family="Arial, sans-serif" font-size="24" font-weight="800">0°C</text>
  <text x="1136" y="371" fill="#15233A" font-family="Arial, sans-serif" font-size="18" font-weight="700">Carbon monoxide</text>
  <text x="1136" y="402" fill="#0F172A" font-family="Arial, sans-serif" font-size="24" font-weight="800">0</text>
  <text x="951" y="451" fill="#15233A" font-family="Arial, sans-serif" font-size="18" font-weight="700">Humidity</text>
  <text x="951" y="482" fill="#0F172A" font-family="Arial, sans-serif" font-size="24" font-weight="800">0%</text>
  <text x="1136" y="451" fill="#15233A" font-family="Arial, sans-serif" font-size="18" font-weight="700">Smoke and Gas</text>
  <text x="1136" y="482" fill="#0F172A" font-family="Arial, sans-serif" font-size="24" font-weight="800">0</text>
  <text x="951" y="559" fill="#15233A" font-family="Arial, sans-serif" font-size="23" font-weight="700">Status</text>
  <text x="1218" y="559" fill="#0F172A" font-family="Arial, sans-serif" font-size="23" font-weight="800">Offline</text>
  <rect x="368" y="789" width="1506" height="125" rx="13" fill="#38465A"/>
  <text x="545" y="826" fill="white" font-family="Arial, sans-serif" font-size="16" font-weight="700">Legend:</text>
  <text x="758" y="835" fill="#D1D5DB" font-family="Arial, sans-serif" font-size="18" font-weight="700">Temperature</text>
  <text x="981" y="835" fill="#D1D5DB" font-family="Arial, sans-serif" font-size="18" font-weight="700">Smoke and Gas</text>
  <text x="1203" y="835" fill="#D1D5DB" font-family="Arial, sans-serif" font-size="18" font-weight="700">Carbon monoxide</text>
  <text x="1425" y="835" fill="#D1D5DB" font-family="Arial, sans-serif" font-size="18" font-weight="700">Humidity</text>
  <text x="1646" y="835" fill="#D1D5DB" font-family="Arial, sans-serif" font-size="18" font-weight="700">Flame</text>
  <defs>
    <filter id="softShadow" x="-20%" y="-20%" width="140%" height="140%" color-interpolation-filters="sRGB">
      <feDropShadow dx="0" dy="2" stdDeviation="4" flood-color="#000000" flood-opacity="0.14"/>
    </filter>
  </defs>
</svg>
