<svg width="1820" height="914" viewBox="0 0 1820 914" fill="none" xmlns="http://www.w3.org/2000/svg">
  <rect width="1820" height="914" fill="#F5F6F8"/>
  <rect x="258" y="57" width="1251" height="800" rx="30" fill="white" filter="url(#shadow)"/>
  <clipPath id="leftClip"><path d="M258 87C258 70.4315 271.431 57 288 57H884V857H288C271.431 857 258 843.569 258 827V87Z"/></clipPath>
  <g clip-path="url(#leftClip)">
    <rect x="258" y="57" width="626" height="800" fill="#B8201D"/>
    <rect x="258" y="57" width="626" height="800" fill="url(#redGrad)" fill-opacity="0.85"/>
    <circle cx="571" cy="438" r="210" fill="#FFFFFF" fill-opacity="0.06"/>
    <text x="320" y="137" fill="white" font-family="Arial, sans-serif" font-size="18">Monitor Your Rooms with Confidence</text>
    <text x="320" y="215" fill="white" font-family="Arial, sans-serif" font-size="45" font-weight="700">Real-time temperature</text>
    <text x="320" y="266" fill="white" font-family="Arial, sans-serif" font-size="45" font-weight="700">and humidity</text>
    <text x="320" y="317" fill="white" font-family="Arial, sans-serif" font-size="45" font-weight="700">monitoring for all your</text>
    <text x="320" y="367" fill="white" font-family="Arial, sans-serif" font-size="45" font-weight="700">spaces.</text>
    <text x="320" y="412" fill="white" font-family="Arial, sans-serif" font-size="18">Get instant alerts and maintain optimal conditions effortlessly.</text>
    <rect x="320" y="497" width="42" height="51" rx="8" fill="white" fill-opacity="0.12"/>
    <text x="376" y="520" fill="white" font-family="Arial, sans-serif" font-size="20" font-weight="700">Real-time Monitoring</text>
    <text x="376" y="547" fill="white" font-family="Arial, sans-serif" font-size="17">Track temperature and humidity levels across all your</text>
    <text x="376" y="572" fill="white" font-family="Arial, sans-serif" font-size="17">rooms instantly</text>
    <rect x="320" y="607" width="42" height="51" rx="8" fill="white" fill-opacity="0.12"/>
    <text x="376" y="630" fill="white" font-family="Arial, sans-serif" font-size="20" font-weight="700">Smart Alerts</text>
    <text x="376" y="657" fill="white" font-family="Arial, sans-serif" font-size="17">Receive notifications when conditions fall outside your set</text>
    <text x="376" y="682" fill="white" font-family="Arial, sans-serif" font-size="17">parameters</text>
    <rect x="320" y="718" width="46" height="48" rx="8" fill="white" fill-opacity="0.12"/>
    <text x="381" y="740" fill="white" font-family="Arial, sans-serif" font-size="20" font-weight="700">Analytics Dashboard</text>
    <text x="381" y="767" fill="white" font-family="Arial, sans-serif" font-size="17">View historical data and trends to optimize your</text>
    <text x="381" y="792" fill="white" font-family="Arial, sans-serif" font-size="17">environment</text>
  </g>
  <g>
    <path d="M1198 103L1258 160L1241 252L1198 290L1155 252L1138 160L1198 103Z" fill="#121826" stroke="#E11D26" stroke-width="5"/>
    <path d="M1198 116C1230 151 1220 178 1198 201C1174 177 1167 150 1198 116Z" fill="#FFB020"/>
    <path d="M1163 164H1233L1225 225H1171L1163 164Z" fill="#F04438"/>
    <text x="1156" y="219" fill="#FFD166" font-family="Arial Black, Arial, sans-serif" font-size="24" font-weight="900">FIREGUARD</text>
  </g>
  <text x="1071" y="357" fill="#1F2937" font-family="Arial, sans-serif" font-size="30" font-weight="700">Login to Fireguard</text>
  <text x="1062" y="395" fill="#4B5563" font-family="Arial, sans-serif" font-size="18">Start monitoring your rooms today</text>
  <text x="967" y="450" fill="#374151" font-family="Arial, sans-serif" font-size="16" font-weight="700">Email Address</text>
  <rect x="967" y="475" width="459" height="62" rx="9" fill="white" stroke="#CBD5E1"/>
  <text x="967" y="577" fill="#374151" font-family="Arial, sans-serif" font-size="16" font-weight="700">Password</text>
  <rect x="967" y="602" width="459" height="62" rx="9" fill="white" stroke="#CBD5E1"/>
  <text x="1285" y="703" fill="#EF000B" font-family="Arial, sans-serif" font-size="17">Forgot password?</text>
  <rect x="967" y="734" width="459" height="60" rx="8" fill="#EF000B"/>
  <text x="1171" y="772" fill="white" font-family="Arial, sans-serif" font-size="18" font-weight="700">Login</text>
  <text x="1051" y="833" fill="#4B5563" font-family="Arial, sans-serif" font-size="16">Don't have an account?</text>
  <text x="1238" y="833" fill="#EF000B" font-family="Arial, sans-serif" font-size="16" font-weight="700">Register here</text>
  <defs>
    <linearGradient id="redGrad" x1="258" y1="57" x2="884" y2="857" gradientUnits="userSpaceOnUse">
      <stop stop-color="#E65353"/>
      <stop offset="1" stop-color="#A91512"/>
    </linearGradient>
    <filter id="shadow" x="198" y="17" width="1371" height="920" filterUnits="userSpaceOnUse" color-interpolation-filters="sRGB">
      <feDropShadow dx="0" dy="22" stdDeviation="28" flood-color="#000000" flood-opacity="0.12"/>
    </filter>
  </defs>
</svg>
