<svg width="1920" height="920" viewBox="0 0 1920 920" fill="none" xmlns="http://www.w3.org/2000/svg">
  <rect width="1920" height="920" fill="#07142F"/>
  <rect width="315" height="920" fill="#1E4191"/>
  <rect x="315" width="1605" height="88" fill="#162747"/>
  <text x="86" y="54" fill="#FFFFFF" font-family="Arial, sans-serif" font-size="28" font-weight="700">TaskFlow</text>
  <text x="86" y="79" fill="#B9C6E6" font-family="Arial, sans-serif" font-size="16">Management System</text>
  <text x="348" y="56" fill="#FFFFFF" font-family="Arial, sans-serif" font-size="31" font-weight="700">Dashboard</text>
  <rect x="16" y="160" width="283" height="51" rx="8" fill="#477AF0"/>
  <text x="76" y="193" fill="#FFFFFF" font-family="Arial, sans-serif" font-size="18" font-weight="700">Dashboard</text>
  <text x="76" y="251" fill="#FFFFFF" font-family="Arial, sans-serif" font-size="18" font-weight="700">Tasks</text>
  <text x="76" y="308" fill="#FFFFFF" font-family="Arial, sans-serif" font-size="18" font-weight="700">Calendar</text>
  <text x="76" y="365" fill="#FFFFFF" font-family="Arial, sans-serif" font-size="18" font-weight="700">Timeline</text>
  <text x="76" y="422" fill="#FFFFFF" font-family="Arial, sans-serif" font-size="18" font-weight="700">Messages</text>
  <text x="76" y="531" fill="#FFFFFF" font-family="Arial, sans-serif" font-size="18" font-weight="700">Users</text>
  <text x="76" y="588" fill="#FFFFFF" font-family="Arial, sans-serif" font-size="18" font-weight="700">Invites</text>
  <text x="76" y="645" fill="#FFFFFF" font-family="Arial, sans-serif" font-size="18" font-weight="700">Billing</text>
  <text x="76" y="702" fill="#FFFFFF" font-family="Arial, sans-serif" font-size="18" font-weight="700">Groups</text>
  <text x="36" y="146" fill="#B9C6E6" font-family="Arial, sans-serif" font-size="15" font-weight="700" letter-spacing="3">MAIN</text>
  <text x="36" y="486" fill="#B9C6E6" font-family="Arial, sans-serif" font-size="15" font-weight="700" letter-spacing="3">MANAGE</text>
  <text x="36" y="766" fill="#B9C6E6" font-family="Arial, sans-serif" font-size="15" font-weight="700" letter-spacing="3">MONITOR</text>
  <rect x="351" y="124" width="819" height="404" rx="20" fill="#172B4F" stroke="#5275B5"/>
  <rect x="376" y="144" width="42" height="39" rx="10" fill="#2F6CEB"/>
  <text x="427" y="170" fill="#FFFFFF" font-family="Arial, sans-serif" font-size="17" font-weight="700">Bulletin Board</text>
  <rect x="1047" y="145" width="97" height="37" rx="9" fill="#2F6CEB"/>
  <text x="1088" y="168" fill="#FFFFFF" font-family="Arial, sans-serif" font-size="15" font-weight="700">+ Post</text>
  <line x1="352" y1="211" x2="1169" y2="211" stroke="#5275B5" stroke-dasharray="3 3"/>
  <text x="714" y="410" fill="#B9C6E6" font-family="Arial, sans-serif" font-size="16">No posts yet.</text>
  <rect x="1190" y="124" width="671" height="124" rx="20" fill="#172B4F" stroke="#5275B5"/>
  <rect x="1216" y="145" width="302" height="82" rx="12" fill="#243E6C" stroke="#5275B5"/>
  <rect x="1533" y="145" width="302" height="82" rx="12" fill="#243E6C" stroke="#5275B5"/>
  <text x="1298" y="189" fill="#FFFFFF" font-family="Arial, sans-serif" font-size="34" font-weight="700">1</text>
  <text x="1615" y="189" fill="#FFFFFF" font-family="Arial, sans-serif" font-size="34" font-weight="700">1</text>
  <text x="1298" y="207" fill="#AFC1E0" font-family="Arial, sans-serif" font-size="13" font-weight="700" letter-spacing="1.5">TOTAL TASKS</text>
  <text x="1615" y="207" fill="#AFC1E0" font-family="Arial, sans-serif" font-size="13" font-weight="700" letter-spacing="1.5">COMPLETED</text>
  <rect x="1190" y="269" width="671" height="234" rx="20" fill="#172B4F" stroke="#5275B5"/>
  <text x="1304" y="299" fill="#2F6CEB" font-family="Arial, sans-serif" font-size="16" font-weight="700">Top Employees</text>
  <text x="1642" y="299" fill="#B9C6E6" font-family="Arial, sans-serif" font-size="16" font-weight="700">Top Groups</text>
  <line x1="1199" y1="320" x2="1525" y2="320" stroke="#2F6CEB" stroke-width="2"/>
  <rect x="1191" y="329" width="660" height="74" rx="12" fill="#243E6C" stroke="#5275B5"/>
  <rect x="1191" y="423" width="660" height="74" rx="12" fill="#243E6C" stroke="#5275B5"/>
  <circle cx="1231" cy="366" r="17" fill="#FFB020"/>
  <circle cx="1231" cy="460" r="17" fill="#AAB4C4"/>
  <text x="1264" y="363" fill="#FFFFFF" font-family="Arial, sans-serif" font-size="16" font-weight="700">Kenneth Malumbaga</text>
  <text x="1264" y="457" fill="#FFFFFF" font-family="Arial, sans-serif" font-size="16" font-weight="700">fire guard</text>
  <text x="1264" y="382" fill="#B9C6E6" font-family="Arial, sans-serif" font-size="14">1 rated task</text>
  <text x="1264" y="476" fill="#B9C6E6" font-family="Arial, sans-serif" font-size="14">1 rated task</text>
  <rect x="351" y="548" width="745" height="320" rx="18" fill="#172B4F" stroke="#5275B5"/>
  <text x="376" y="584" fill="#FFFFFF" font-family="Arial, sans-serif" font-size="22" font-weight="700">Recent Tasks</text>
  <text x="376" y="604" fill="#B9C6E6" font-family="Arial, sans-serif" font-size="14">1 total tasks</text>
  <rect x="928" y="568" width="143" height="37" rx="9" fill="#2F6CEB"/>
  <text x="962" y="592" fill="#FFFFFF" font-family="Arial, sans-serif" font-size="15" font-weight="700">+ Create Task</text>
  <line x1="351" y1="626" x2="1096" y2="626" stroke="#5275B5"/>
  <rect x="376" y="648" width="46" height="44" rx="10" fill="#5D8AF0"/>
  <text x="436" y="662" fill="#FFFFFF" font-family="Arial, sans-serif" font-size="16" font-weight="700">Dance Competition Webapp</text>
  <text x="436" y="686" fill="#B9C6E6" font-family="Arial, sans-serif" font-size="14">LEADER  Kenneth Malumbaga</text>
  <rect x="1116" y="548" width="745" height="320" rx="18" fill="#172B4F" stroke="#5275B5"/>
  <circle cx="1147" cy="577" r="7" fill="#10B981"/>
  <text x="1162" y="584" fill="#FFFFFF" font-family="Arial, sans-serif" font-size="22" font-weight="700">Active Users</text>
  <rect x="1757" y="566" width="78" height="24" rx="12" fill="#C7F9DD"/>
  <text x="1770" y="582" fill="#078452" font-family="Arial, sans-serif" font-size="14" font-weight="700">0 online</text>
  <line x1="1116" y1="607" x2="1861" y2="607" stroke="#5275B5"/>
  <text x="1163" y="654" fill="#B9C6E6" font-family="Arial, sans-serif" font-size="16">No active users right now.</text>
</svg>
